<?xml version="1.0" encoding="utf-8"?>
<!-- Generator: Adobe Illustrator 25.3.0, SVG Export Plug-In . SVG Version: 6.00 Build 0)  -->
<svg version="1.1" id="Capa_1" xmlns="http://www.w3.org/2000/svg" xmlns:xlink="http://www.w3.org/1999/xlink" x="0px" y="0px"
	 viewBox="0 0 71.83 10.3" style="enable-background:new 0 0 71.83 10.3;" xml:space="preserve">
<style type="text/css">
	.st0{fill:#323232;}
	.st1{fill:#F57F00;}
	.st2{fill:none;}
	.st3{opacity:0.79;fill:#F57F00;}
	.st4{opacity:0.71;fill:#FF6201;}
	.st5{fill:#FFFFFF;}
</style>
<g>
	<path class="st0" d="M17.25,1.04v1.64h-2.23v6.78h-2.05V2.69h-2.23V1.04H17.25z"/>
	<path class="st0" d="M23.96,6.61h-4.64c0.03,0.42,0.17,0.73,0.4,0.95c0.24,0.22,0.53,0.33,0.87,0.33c0.51,0,0.87-0.22,1.07-0.65
		h2.18c-0.11,0.44-0.31,0.84-0.61,1.19c-0.29,0.35-0.66,0.63-1.1,0.83c-0.44,0.2-0.93,0.3-1.48,0.3c-0.66,0-1.24-0.14-1.75-0.42
		c-0.51-0.28-0.91-0.68-1.2-1.2c-0.29-0.52-0.43-1.13-0.43-1.82s0.14-1.3,0.43-1.82c0.28-0.52,0.68-0.92,1.19-1.2
		c0.51-0.28,1.1-0.42,1.76-0.42c0.65,0,1.22,0.14,1.73,0.41c0.5,0.27,0.9,0.66,1.18,1.16s0.43,1.09,0.43,1.76
		C23.99,6.2,23.98,6.4,23.96,6.61z M21.89,5.47c0-0.35-0.12-0.63-0.36-0.84c-0.24-0.21-0.54-0.31-0.9-0.31
		c-0.34,0-0.63,0.1-0.87,0.3c-0.24,0.2-0.38,0.48-0.44,0.85H21.89z"/>
	<path class="st0" d="M26.53,0.59v8.88h-2.05V0.59H26.53z"/>
	<path class="st0" d="M33.69,6.61h-4.64c0.03,0.42,0.17,0.73,0.4,0.95c0.24,0.22,0.53,0.33,0.87,0.33c0.51,0,0.87-0.22,1.07-0.65
		h2.18c-0.11,0.44-0.31,0.84-0.61,1.19c-0.29,0.35-0.66,0.63-1.1,0.83c-0.44,0.2-0.93,0.3-1.48,0.3c-0.66,0-1.24-0.14-1.75-0.42
		c-0.51-0.28-0.91-0.68-1.2-1.2c-0.29-0.52-0.43-1.13-0.43-1.82s0.14-1.3,0.43-1.82c0.28-0.52,0.68-0.92,1.19-1.2
		c0.51-0.28,1.1-0.42,1.76-0.42c0.65,0,1.22,0.14,1.73,0.41c0.5,0.27,0.9,0.66,1.18,1.16s0.43,1.09,0.43,1.76
		C33.73,6.2,33.71,6.4,33.69,6.61z M31.63,5.47c0-0.35-0.12-0.63-0.36-0.84c-0.24-0.21-0.54-0.31-0.9-0.31
		c-0.34,0-0.63,0.1-0.87,0.3c-0.24,0.2-0.38,0.48-0.44,0.85H31.63z"/>
	<path class="st1" d="M39.69,1.04v1.64h-3.43v1.78h2.57v1.6h-2.57v3.41h-2.05V1.04H39.69z"/>
	<path class="st1" d="M40.15,4.29c0.26-0.52,0.61-0.92,1.06-1.2c0.45-0.28,0.95-0.42,1.5-0.42c0.47,0,0.89,0.1,1.24,0.29
		c0.36,0.19,0.63,0.44,0.82,0.76V2.77h2.05v6.7h-2.05V8.52c-0.2,0.31-0.48,0.56-0.83,0.76c-0.36,0.19-0.77,0.29-1.24,0.29
		c-0.54,0-1.04-0.14-1.49-0.43c-0.45-0.28-0.8-0.69-1.06-1.21c-0.26-0.52-0.39-1.13-0.39-1.82C39.76,5.42,39.89,4.81,40.15,4.29z
		 M44.35,4.91c-0.28-0.3-0.63-0.44-1.04-0.44c-0.41,0-0.75,0.15-1.04,0.44c-0.28,0.29-0.43,0.69-0.43,1.21
		c0,0.51,0.14,0.92,0.43,1.22c0.28,0.3,0.63,0.45,1.04,0.45c0.41,0,0.75-0.15,1.04-0.44s0.43-0.7,0.43-1.21S44.64,5.2,44.35,4.91z"
		/>
	<path class="st1" d="M50.67,3.02c0.36-0.21,0.76-0.32,1.2-0.32v2.17h-0.56c-0.51,0-0.9,0.11-1.15,0.33s-0.38,0.61-0.38,1.16v3.11
		h-2.05v-6.7h2.05v1.12C50.01,3.52,50.31,3.23,50.67,3.02z"/>
	<path class="st1" d="M62.78,3.45c0.49,0.5,0.74,1.2,0.74,2.1v3.91h-2.04V5.83c0-0.43-0.11-0.77-0.34-1
		c-0.23-0.24-0.54-0.35-0.94-0.35c-0.4,0-0.71,0.12-0.94,0.35c-0.23,0.24-0.34,0.57-0.34,1v3.64h-2.04V5.83c0-0.43-0.11-0.77-0.34-1
		c-0.23-0.24-0.54-0.35-0.94-0.35c-0.4,0-0.71,0.12-0.94,0.35c-0.23,0.24-0.34,0.57-0.34,1v3.64h-2.05v-6.7h2.05v0.84
		c0.21-0.28,0.48-0.5,0.82-0.67s0.72-0.25,1.14-0.25c0.5,0,0.95,0.11,1.35,0.32c0.4,0.22,0.71,0.52,0.93,0.92
		c0.23-0.37,0.55-0.67,0.95-0.9c0.4-0.23,0.83-0.35,1.31-0.35C61.63,2.7,62.29,2.95,62.78,3.45z"/>
	<path class="st1" d="M64.34,4.29c0.26-0.52,0.61-0.92,1.06-1.2c0.45-0.28,0.95-0.42,1.5-0.42c0.47,0,0.89,0.1,1.24,0.29
		c0.36,0.19,0.63,0.44,0.82,0.76V2.77h2.05v6.7h-2.05V8.52c-0.2,0.31-0.48,0.56-0.83,0.76c-0.36,0.19-0.77,0.29-1.24,0.29
		c-0.54,0-1.04-0.14-1.49-0.43c-0.45-0.28-0.8-0.69-1.06-1.21c-0.26-0.52-0.39-1.13-0.39-1.82C63.95,5.42,64.08,4.81,64.34,4.29z
		 M68.54,4.91c-0.28-0.3-0.63-0.44-1.04-0.44c-0.41,0-0.75,0.15-1.04,0.44c-0.28,0.29-0.43,0.69-0.43,1.21
		c0,0.51,0.14,0.92,0.43,1.22c0.28,0.3,0.63,0.45,1.04,0.45c0.41,0,0.75-0.15,1.04-0.44s0.43-0.7,0.43-1.21S68.83,5.2,68.54,4.91z"
		/>
</g>
<g>
	<rect x="65.96" y="5.87" class="st2" width="2.38" height="0"/>
</g>
<g>
	<rect x="3.55" y="1.09" class="st3" width="5.7" height="5.7"/>
	<rect x="0.7" y="3.94" class="st4" width="5.7" height="5.7"/>
</g>
<g>
	<path class="st1" d="M9.03,48.83c-0.74,0.71-0.7,1.96,0.08,2.79c0.78,0.83,2.01,0.94,2.75,0.23l2.62-2.51l-2.83-3.02L9.03,48.83z"
		/>
	<path class="st5" d="M17.09,46.84c0.74-0.71,0.7-1.96-0.08-2.79c-0.78-0.83-2.01-0.94-2.75-0.23l-2.62,2.51l2.83,3.02L17.09,46.84z
		"/>
</g>
<g>
</g>
<g>
</g>
<g>
</g>
<g>
</g>
<g>
</g>
<g>
</g>
</svg>
